<svg width="32" height="32" viewBox="0 0 32 32" fill="#2998ff" xmlns="http://www.w3.org/2000/svg">
    <path opacity=".5" fill-rule="evenodd" clip-rule="evenodd" d="M16.0001 1.74362C14.6773 1.72919 13.3469 2.45591 12.778 3.92377L10.6956 9.29666L4.9422 9.61684C1.82915 9.79007 0.558049 13.7022 2.97472 15.6721L7.44115 19.3129L5.96774 24.8837C5.17052 27.8979 8.49835 30.3157 11.1187 28.6261L15.9615 25.5033L16.0001 1.74362Z"></path>
    <path fill-rule="evenodd" clip-rule="evenodd" d="M12.7734 11.4142C12.6674 11.6879 12.411 11.8741 12.118 11.8905L5.12894 12.2794C4.44735 12.3173 4.16905 13.1739 4.69817 13.6052L10.1238 18.0279C10.3513 18.2133 10.4492 18.5147 10.3742 18.7984L8.58434 25.5656C8.40979 26.2255 9.1384 26.7549 9.71211 26.3849L15.595 22.5915C15.8416 22.4325 16.1585 22.4325 16.4052 22.5915L22.288 26.3849C22.8617 26.7549 23.5903 26.2255 23.4158 25.5656L21.626 18.7984C21.5509 18.5147 21.6488 18.2133 21.8763 18.0279L27.302 13.6052C27.8311 13.1739 27.5528 12.3173 26.8712 12.2794L19.8822 11.8905C19.5891 11.8741 19.3327 11.6879 19.2267 11.4142L16.6971 4.88745C16.4504 4.25095 15.5498 4.25095 15.3031 4.88746L12.7734 11.4142ZM21.2659 9.29666L19.1835 3.92377C18.0568 1.01661 13.9434 1.01663 12.8166 3.92377L10.7342 9.29666L4.98077 9.61684C1.86772 9.79007 0.596624 13.7022 3.01329 15.6721L7.47972 19.3129L6.00632 24.8837C5.20909 27.8979 8.53693 30.3157 11.1572 28.6261L16.0001 25.5033L20.8429 28.6261C23.4632 30.3157 26.791 27.8979 25.9938 24.8837L24.5204 19.3129L28.9868 15.6721C31.4035 13.7022 30.1324 9.79007 27.0194 9.61684L21.2659 9.29666Z"></path>
</svg>