<svg width="23" height="24" viewBox="0 0 23 24" fill="none" xmlns="http://www.w3.org/2000/svg">
<path opacity="0.25" fill-rule="evenodd" clip-rule="evenodd" d="M2.92288 0.034445L16.6681 7.6072L13.4211 10.7106L2.64646 0.407833C2.45253 0.221407 2.67753 -0.0989461 2.91431 0.0296236L2.92288 0.034445ZM0.714722 22.5261V1.47279C0.714863 1.42712 0.728486 1.3825 0.753883 1.34453C0.779281 1.30657 0.815322 1.27695 0.857486 1.25938C0.899651 1.24182 0.946063 1.23709 0.990902 1.2458C1.03574 1.25451 1.07701 1.27626 1.10954 1.30833L12.0717 12L1.10954 22.6905C1.07701 22.7226 1.03574 22.7444 0.990902 22.7531C0.946063 22.7618 0.899651 22.7571 0.857486 22.7395C0.815322 22.7219 0.779281 22.6923 0.753883 22.6543C0.728486 22.6164 0.714863 22.5718 0.714722 22.5261ZM2.64754 23.5921C2.45255 23.7785 2.67754 24.0989 2.9154 23.9703L2.92397 23.9655L16.6681 16.3928L13.4211 13.2883L2.64754 23.5921ZM18.3786 8.54681L22.2169 10.6607C23.261 11.2377 23.261 12.7623 22.2169 13.3392L18.3786 15.4515L14.7695 12L18.3786 8.54681Z" fill="#0B3858"/>
</svg>
