<svg width="25" height="24" viewBox="0 0 25 24" fill="none" xmlns="http://www.w3.org/2000/svg">
<path opacity="0.25" d="M12.7099 5.4629L13.1502 4.70323C13.4212 4.22903 14.026 4.06935 14.5002 4.34032C14.9744 4.61129 15.1341 5.21613 14.8631 5.69032L10.6292 13.021H13.6921C14.6841 13.021 15.2405 14.1871 14.8099 14.9952H5.83408C5.2873 14.9952 4.84698 14.5548 4.84698 14.0081C4.84698 13.4613 5.2873 13.021 5.83408 13.021H8.35021L11.5728 7.4371L10.5663 5.69032C10.2954 5.21613 10.455 4.61613 10.9292 4.34032C11.4034 4.06935 12.0034 4.22903 12.2792 4.70323L12.7099 5.4629ZM8.90182 16.0113L7.95343 17.6565C7.68246 18.1306 7.07762 18.2903 6.60343 18.0194C6.12924 17.7484 5.96956 17.1435 6.24053 16.6694L6.94698 15.45C7.74053 15.2032 8.38891 15.3919 8.90182 16.0113ZM17.0744 13.0258H19.6438C20.1905 13.0258 20.6309 13.4661 20.6309 14.0129C20.6309 14.5597 20.1905 15 19.6438 15H18.2163L19.1792 16.6694C19.4502 17.1435 19.2905 17.7435 18.8163 18.0194C18.3421 18.2903 17.7421 18.1306 17.4663 17.6565C15.8454 14.8452 14.626 12.7403 13.8179 11.3371C12.9905 9.90968 13.5809 8.47742 14.1663 7.99355C14.8147 9.10645 15.7825 10.7855 17.0744 13.0258ZM12.7147 0C6.08569 0 0.714722 5.37097 0.714722 12C0.714722 18.629 6.08569 24 12.7147 24C19.3438 24 24.7147 18.629 24.7147 12C24.7147 5.37097 19.3438 0 12.7147 0Z" fill="#0B3858"/>
</svg>
