<svg width="25" height="24" viewBox="0 0 25 24" fill="none" xmlns="http://www.w3.org/2000/svg">
<path opacity="0.25" d="M12.5468 0C9.36424 0 6.31211 1.26427 4.0614 3.51464C1.81109 5.76522 0.546753 8.81728 0.546753 12C0.546753 15.1827 1.81102 18.2348 4.0614 20.4854C6.31197 22.7359 9.36404 24 12.5468 24C15.7295 24 18.7816 22.7359 21.0321 20.4854C23.2827 18.2351 24.5468 15.1827 24.5468 12C24.5428 8.81876 23.2774 5.76878 21.0279 3.51935C18.7784 1.26978 15.7286 0.00389791 12.5468 0ZM2.07884 12.7462H5.35618C5.41839 14.1583 5.69824 15.5523 6.1865 16.8788H3.24761C2.57582 15.5969 2.17783 14.1898 2.07884 12.7462ZM13.2927 5.6298V2.11885C14.582 3.07498 15.6785 4.26627 16.5252 5.6298H13.2927ZM17.2712 7.12169C17.8336 8.43139 18.1583 9.83068 18.2307 11.2543H13.2578V7.12169H17.2712ZM11.8008 2.10884V5.6298H8.56839C9.40792 4.25814 10.5058 3.06235 11.8008 2.10884ZM11.8008 7.12169V11.2543H6.82791C6.89774 9.83195 7.21749 8.433 7.77275 7.12169H11.8008ZM5.33601 11.2543H2.07863C2.17918 9.81018 2.57874 8.40303 3.25211 7.12169H6.19127C5.7014 8.44792 5.41948 9.84197 5.35564 11.2543H5.33601ZM6.82791 12.7462H11.8008V16.8788H7.79768C7.24061 15.5677 6.91904 14.1688 6.8476 12.7462H6.82791ZM11.8008 18.3707V21.8916C10.5058 20.9381 9.40799 19.7423 8.56839 18.3707L11.8008 18.3707ZM13.2927 21.8916V18.3707H16.5252C15.6856 19.7423 14.5878 20.9381 13.2927 21.8916ZM13.2927 16.8788V12.7462H18.2657C18.1958 14.1685 17.8761 15.5673 17.3208 16.8788H13.2927ZM19.7576 12.7462H23.0349C22.9341 14.19 22.5345 15.5974 21.8612 16.8788H18.9073C19.3956 15.5523 19.6757 14.1583 19.7376 12.7462H19.7576ZM19.7576 11.2543C19.6953 9.84217 19.4152 8.44819 18.9272 7.12169H21.8462C22.5196 8.40303 22.9194 9.81018 23.02 11.2543H19.7377H19.7576ZM20.9014 5.6298H18.2657C17.5278 4.22581 16.5517 2.96047 15.3813 1.89015C17.5708 2.50918 19.5006 3.82123 20.8814 5.6298H20.9014ZM9.73185 1.89015C8.56154 2.96047 7.58572 4.22581 6.84753 5.6298H4.2118C5.59791 3.81787 7.53531 2.50528 9.73185 1.89015ZM4.2118 18.3709H6.84753C7.58572 19.7747 8.56154 21.04 9.73185 22.1106C7.53531 21.4952 5.59791 20.1829 4.2118 18.3709ZM15.3666 22.1106C16.5369 21.04 17.513 19.7747 18.2509 18.3709H20.8866C19.4994 20.1837 17.5602 21.4963 15.3616 22.1106H15.3666Z" fill="#0B3858"/>
</svg>
