<svg width="196" height="22" viewBox="0 0 196 22" fill="none" xmlns="http://www.w3.org/2000/svg">
    <path d="M126.799 20.6378C126.172 21.0296 125.478 21.3291 124.717 21.5358C123.954 21.7426 123.188 21.8461 122.415 21.8461C120.851 21.8461 119.578 21.3783 118.597 20.4419C117.616 19.5061 117.125 18.1673 117.125 16.4255V8.2945H114.778V4.83302H117.125V2.13066L121.914 0V4.83302H126.486V8.32704H121.914V15.5764C121.914 16.9264 122.426 17.6011 123.449 17.6011C124.158 17.6011 124.941 17.3835 125.797 16.9479L126.799 20.6378Z" fill="#2998FF"/>
    <path d="M26.3056 3.7491C23.9378 3.7491 21.6466 4.78272 20.0174 6.58514L11.6048 15.401C10.7428 16.2937 9.66384 16.8058 8.64442 16.8058C6.47649 16.8058 4.71278 14.9661 4.71278 12.7046C4.71278 10.4433 6.47649 8.60357 8.64442 8.60357C9.71618 8.60357 10.7302 9.06634 11.4626 9.85255L14.8263 6.41466C13.2091 4.69092 10.9743 3.68769 8.64442 3.68769C3.87784 3.68769 0 7.73262 0 12.7046C0 17.6767 3.87784 21.7216 8.64442 21.7216C10.8304 21.7216 12.898 20.8294 14.6615 19.1333L14.669 19.1412L14.9534 18.8421C15.0031 18.7908 15.0526 18.7387 15.1018 18.6861L23.3736 10.0176L23.4728 9.92468C24.4134 9.04175 25.2606 8.66498 26.3056 8.66498C28.4736 8.66498 30.237 10.5047 30.237 12.766C30.237 15.0274 28.4736 16.8672 26.3056 16.8672C24.6789 16.8672 23.27 15.8386 22.6754 14.3431L19.2289 17.9381C20.8297 20.3162 23.4609 21.783 26.3056 21.783C31.0722 21.783 34.9498 17.7381 34.9498 12.766C34.9498 7.79403 31.0722 3.7491 26.3056 3.7491Z" fill="#2998FF"/>
    <path d="M53.2487 5.68161C54.3647 6.9011 54.9235 8.53391 54.9235 10.5798V21.6172H50.1025V12.0494C50.1025 10.9391 49.8052 10.0631 49.2103 9.42063C48.6155 8.77879 47.8066 8.45738 46.7842 8.45738C45.5946 8.47932 44.6556 8.90943 43.9667 9.74722C43.2781 10.5855 42.9339 11.6575 42.9339 12.9636V21.6172H38.1128V4.04892H42.9339V7.11848C44.1022 4.9853 46.0432 3.89697 48.7563 3.85309C50.6346 3.85309 52.1319 4.46264 53.2487 5.68161Z" fill="#2998FF"/>
    <path d="M75.8957 10.5798C75.8957 8.53391 75.337 6.9011 74.2208 5.68161C73.1042 4.46264 71.607 3.85309 69.7286 3.85309C67.0155 3.89697 65.0743 4.9853 63.906 7.11848V4.04892H59.085V21.6172H63.906V12.9636C63.906 11.6575 64.2504 10.5855 64.9389 9.74722C65.6278 8.90943 66.5668 8.47932 67.7565 8.45738C68.7788 8.45738 69.5878 8.77879 70.1826 9.42063C70.7773 10.0631 71.0748 10.9391 71.0748 12.0494V21.6172H75.8957V10.5798Z" fill="#2998FF"/>
    <path fill-rule="evenodd" clip-rule="evenodd" d="M93.4761 6.33512C94.885 7.96782 95.5892 10.2429 95.5892 13.1598C95.5892 13.6825 95.5784 14.0854 95.5579 14.3681H83.4742C83.7453 15.4785 84.2673 16.3436 85.0394 16.964C85.8114 17.5847 86.7403 17.8949 87.8256 17.8949C88.6184 17.8949 89.3802 17.7371 90.1108 17.4214C90.8411 17.1059 91.4985 16.6432 92.0831 16.0335L94.6186 18.7113C93.7628 19.7127 92.7247 20.4803 91.504 21.0134C90.283 21.5471 88.9214 21.8133 87.4186 21.8133C85.6445 21.8133 84.0949 21.4436 82.7698 20.7032C81.4444 19.9634 80.422 18.9184 79.702 17.5682C78.982 16.2187 78.6219 14.662 78.6219 12.8987C78.6219 11.1138 78.9869 9.54074 79.7177 8.18004C80.448 6.81971 81.4708 5.76365 82.7857 5.01263C84.1003 4.26147 85.6029 3.88595 87.2935 3.88595C90.0061 3.88595 92.0675 4.70242 93.4761 6.33512ZM91.05 11.3967C91.0078 10.2429 90.6533 9.31784 89.9856 8.62102C89.3173 7.92447 88.4305 7.57593 87.3246 7.57593C86.2809 7.57593 85.4097 7.91892 84.7107 8.60463C84.0112 9.29047 83.5681 10.2211 83.3803 11.3967H91.05Z" fill="#2998FF"/>
    <path d="M97.2882 12.8986C97.2882 17.9171 101.202 22 106.013 22C109.012 22 111.765 20.4212 113.378 17.7768L113.425 17.6988L109.811 15.5097L109.767 15.5775C108.917 16.8707 107.514 17.6426 106.013 17.6426C103.506 17.6426 101.466 15.5143 101.466 12.8986C101.466 10.2826 103.506 8.15432 106.013 8.15432C107.457 8.15432 108.783 8.84583 109.652 10.0518L109.698 10.1165L113.259 7.82685L113.208 7.75005C111.577 5.27478 108.887 3.79706 106.013 3.79706C101.202 3.79706 97.2882 7.87981 97.2882 12.8986Z" fill="#2998FF"/>
    <path fill-rule="evenodd" clip-rule="evenodd" d="M145.11 13.1598C145.11 10.2429 144.406 7.96782 142.997 6.33512C141.588 4.70242 139.527 3.88595 136.814 3.88595C135.124 3.88595 133.621 4.26147 132.307 5.01263C130.992 5.76365 129.969 6.81971 129.239 8.18004C128.508 9.54074 128.143 11.1138 128.143 12.8987C128.143 14.662 128.503 16.2187 129.223 17.5682C129.943 18.9184 130.965 19.9634 132.291 20.7032C133.616 21.4436 135.166 21.8133 136.94 21.8133C138.443 21.8133 139.804 21.5471 141.025 21.0134C142.246 20.4803 143.284 19.7127 144.139 18.7113L141.604 16.0335C141.019 16.6432 140.363 17.1059 139.632 17.4214C138.901 17.7371 138.139 17.8949 137.346 17.8949C136.262 17.8949 135.332 17.5847 134.56 16.964C133.788 16.3436 133.266 15.4785 132.996 14.3681H145.079C145.099 14.0854 145.11 13.6825 145.11 13.1598ZM139.506 8.62102C140.174 9.31784 140.529 10.2429 140.571 11.3967H132.901C133.089 10.2211 133.532 9.29047 134.231 8.60463C134.931 7.91892 135.803 7.57593 136.845 7.57593C137.952 7.57593 138.839 7.92447 139.506 8.62102Z" fill="#2998FF"/>
    <path fill-rule="evenodd" clip-rule="evenodd" d="M158.038 21.6172V19.5599C157.474 20.3004 156.744 20.8661 155.847 21.258C154.949 21.6499 153.916 21.8458 152.747 21.8458C150.973 21.8458 149.564 21.3396 148.521 20.3273C147.477 19.3152 146.956 17.9926 146.956 16.3598C146.956 14.7055 147.514 13.4157 148.631 12.4904C149.747 11.5653 151.327 11.0918 153.373 11.0697H158.006V10.7433C158.006 9.80736 157.709 9.08345 157.114 8.57162C156.52 8.06055 155.648 7.80432 154.501 7.80432C152.935 7.80432 151.266 8.31615 149.491 9.33905L147.989 5.87769C149.325 5.18126 150.576 4.66944 151.746 4.34297C152.914 4.01638 154.197 3.85309 155.596 3.85309C157.85 3.85309 159.597 4.40829 160.839 5.51844C162.081 6.62873 162.713 8.17467 162.734 10.1554L162.765 21.6172H158.038ZM156.692 17.5027C157.422 17.0022 157.86 16.371 158.007 15.6087V14.0412H154.218C153.279 14.0412 152.585 14.1993 152.137 14.5149C151.688 14.8306 151.464 15.3367 151.464 16.0332C151.464 16.7082 151.698 17.2471 152.168 17.6496C152.638 18.0528 153.279 18.2538 154.094 18.2538C155.095 18.2538 155.961 18.0037 156.692 17.5027Z" fill="#2998FF"/>
    <path d="M195.291 10.58C195.291 8.5121 194.742 6.87372 193.647 5.66547C192.551 4.45721 191.075 3.85309 189.217 3.85309C187.777 3.87515 186.541 4.22343 185.507 4.89817C184.475 5.57317 183.687 6.57475 183.144 7.90243C182.727 6.61813 182.028 5.62209 181.047 4.91444C180.066 4.20729 178.866 3.85309 177.446 3.85309C174.817 3.8971 172.918 4.97459 171.75 7.08595V4.04904H166.928V21.6174H171.75V12.9312C171.75 11.625 172.089 10.5586 172.767 9.73108C173.445 8.90388 174.358 8.47944 175.506 8.4575C176.507 8.4575 177.295 8.77892 177.869 9.42075C178.443 10.0632 178.731 10.9392 178.731 12.0495V21.6174H183.52V12.9312C183.52 11.625 183.854 10.5586 184.522 9.73108C185.19 8.90388 186.098 8.47944 187.245 8.4575C188.247 8.4575 189.04 8.77337 189.624 9.40449C190.209 10.0362 190.501 10.9176 190.501 12.0495V21.6174H195.291V10.58Z" fill="#2998FF"/>
</svg>