<svg width="177" height="20" viewBox="0 0 177 20" fill="none" xmlns="http://www.w3.org/2000/svg">
<path fill-rule="evenodd" clip-rule="evenodd" d="M23.8417 3.398C21.6957 3.398 19.6191 4.3348 18.1425 5.9684L10.5178 13.9585C9.73662 14.7676 8.75868 15.2317 7.83474 15.2317C5.86987 15.2317 4.27136 13.5644 4.27136 11.5147C4.27136 9.4652 5.86987 7.79777 7.83474 7.79777C8.80612 7.79777 9.72512 8.2172 10.389 8.92977L13.4376 5.81389C11.9719 4.2516 9.94643 3.34234 7.83474 3.34234C3.51462 3.34234 0 7.0084 0 11.5147C0 16.0211 3.51462 19.6871 7.83474 19.6871C9.81594 19.6871 11.6899 18.8785 13.2882 17.3412L13.295 17.3484L13.5528 17.0773C13.5978 17.0308 13.6427 16.9836 13.6873 16.9359L21.1843 9.07937L21.2742 8.99514C22.1267 8.19491 22.8946 7.85343 23.8417 7.85343C25.8066 7.85343 27.4049 9.52086 27.4049 11.5703C27.4049 13.6199 25.8066 15.2874 23.8417 15.2874C22.3674 15.2874 21.0904 14.3551 20.5515 12.9997L17.4278 16.258C18.8787 18.4133 21.2634 19.7428 23.8417 19.7428C28.1618 19.7428 31.6762 16.0767 31.6762 11.5703C31.6762 7.06406 28.1618 3.398 23.8417 3.398Z" fill="#2998FF"/>
<path fill-rule="evenodd" clip-rule="evenodd" d="M48.2598 5.14969C49.2713 6.25495 49.7777 7.73483 49.7777 9.58912V19.5927H45.4083V10.921C45.4083 9.91472 45.1388 9.12077 44.5997 8.53849C44.0606 7.95677 43.3274 7.66546 42.4008 7.66546C41.3226 7.68535 40.4716 8.07517 39.8472 8.83449C39.2231 9.59426 38.9111 10.5658 38.9111 11.7496V19.5927H34.5416V3.66992H38.9111V6.45197C39.97 4.5186 41.7292 3.5322 44.1882 3.49243C45.8906 3.49243 47.2476 4.04489 48.2598 5.14969Z" fill="#2998FF"/>
<path fill-rule="evenodd" clip-rule="evenodd" d="M67.2703 5.14969C68.2819 6.25495 68.7883 7.73483 68.7883 9.58912V19.5927H64.4189V10.921C64.4189 9.91472 64.1493 9.12077 63.6103 8.53849C63.0712 7.95677 62.338 7.66546 61.4114 7.66546C60.3332 7.68535 59.4821 8.07517 58.8577 8.83449C58.2337 9.59426 57.9216 10.5658 57.9216 11.7496V19.5927H53.5521V3.66992H57.9216V6.45197C58.9805 4.5186 60.7398 3.5322 63.1988 3.49243C64.9013 3.49243 66.2582 4.04489 67.2703 5.14969Z" fill="#2998FF"/>
<path fill-rule="evenodd" clip-rule="evenodd" d="M82.5201 10.3292C82.4819 9.28348 82.1606 8.44508 81.5554 7.81353C80.9497 7.18222 80.146 6.86633 79.1437 6.86633C78.1977 6.86633 77.4081 7.17719 76.7746 7.79868C76.1406 8.42028 75.739 9.26371 75.5688 10.3292H82.5201ZM84.719 5.74174C85.9959 7.22151 86.6342 9.28346 86.6342 11.9272C86.6342 12.4009 86.6244 12.7661 86.6058 13.0223H75.6539C75.8996 14.0287 76.3727 14.8128 77.0725 15.3751C77.7722 15.9376 78.6141 16.2188 79.5977 16.2188C80.3163 16.2188 81.0067 16.0758 81.6689 15.7896C82.3308 15.5037 82.9266 15.0843 83.4565 14.5317L85.7545 16.9587C84.9788 17.8663 84.038 18.562 82.9316 19.0452C81.825 19.5289 80.5909 19.7702 79.2289 19.7702C77.6209 19.7702 76.2165 19.4351 75.0155 18.764C73.8142 18.0935 72.8876 17.1464 72.235 15.9227C71.5825 14.6996 71.2561 13.2887 71.2561 11.6905C71.2561 10.0728 71.5869 8.64711 72.2493 7.41386C72.9112 6.18094 73.8382 5.2238 75.0299 4.54312C76.2214 3.86232 77.5832 3.52197 79.1155 3.52197C81.574 3.52197 83.4423 4.26197 84.719 5.74174Z" fill="#2998FF"/>
<path fill-rule="evenodd" clip-rule="evenodd" d="M96.0824 19.9395C91.722 19.9395 88.1745 16.239 88.1745 11.6906C88.1745 7.14187 91.722 3.44153 96.0824 3.44153C98.6871 3.44153 101.125 4.78084 102.603 7.02427L102.649 7.09387L99.4222 9.16907L99.3801 9.11044C98.5928 8.01741 97.3909 7.39067 96.0824 7.39067C93.8097 7.39067 91.9605 9.31959 91.9605 11.6906C91.9605 14.0613 93.8097 15.9902 96.0824 15.9902C97.4421 15.9902 98.7138 15.2906 99.4842 14.1186L99.5245 14.0571L102.8 16.0412L102.757 16.1119C101.295 18.5086 98.7999 19.9395 96.0824 19.9395Z" fill="#2998FF"/>
<path fill-rule="evenodd" clip-rule="evenodd" d="M114.922 18.7048C114.354 19.0599 113.725 19.3313 113.035 19.5187C112.344 19.7061 111.649 19.7999 110.949 19.7999C109.531 19.7999 108.377 19.3759 107.488 18.5272C106.599 17.6791 106.154 16.4657 106.154 14.887V7.5176H104.027V4.38034H106.154V1.93109L110.495 0V4.38034H114.638V7.54709H110.495V14.1174C110.495 15.341 110.959 15.9525 111.886 15.9525C112.528 15.9525 113.238 15.7553 114.014 15.3605L114.922 18.7048Z" fill="#2998FF"/>
<path fill-rule="evenodd" clip-rule="evenodd" d="M127.405 10.3292C127.367 9.28348 127.045 8.44508 126.44 7.81353C125.835 7.18222 125.031 6.86633 124.028 6.86633C123.083 6.86633 122.293 7.17719 121.659 7.79868C121.025 8.42028 120.624 9.26371 120.453 10.3292H127.405ZM129.604 5.74174C130.881 7.22151 131.519 9.28346 131.519 11.9272C131.519 12.4009 131.509 12.7661 131.491 13.0223H120.539C120.784 14.0287 121.257 14.8128 121.957 15.3751C122.657 15.9376 123.499 16.2188 124.482 16.2188C125.201 16.2188 125.891 16.0758 126.554 15.7896C127.216 15.5037 127.811 15.0843 128.341 14.5317L130.639 16.9587C129.864 17.8663 128.923 18.562 127.816 19.0452C126.71 19.5289 125.476 19.7702 124.114 19.7702C122.506 19.7702 121.101 19.4351 119.9 18.764C118.699 18.0935 117.772 17.1464 117.12 15.9227C116.467 14.6996 116.141 13.2887 116.141 11.6905C116.141 10.0728 116.472 8.64711 117.134 7.41386C117.796 6.18094 118.723 5.2238 119.915 4.54312C121.106 3.86232 122.468 3.52197 124 3.52197C126.459 3.52197 128.327 4.26197 129.604 5.74174Z" fill="#2998FF"/>
<path fill-rule="evenodd" clip-rule="evenodd" d="M142.017 15.8636C142.679 15.4099 143.076 14.8379 143.209 14.147V12.7263H139.775C138.924 12.7263 138.295 12.8696 137.889 13.1556C137.482 13.4417 137.279 13.9004 137.279 14.5317C137.279 15.1435 137.491 15.6319 137.917 15.9967C138.343 16.3621 138.924 16.5443 139.662 16.5443C140.57 16.5443 141.355 16.3176 142.017 15.8636ZM143.237 19.5927V17.7281C142.726 18.3992 142.064 18.9119 141.251 19.2671C140.437 19.6223 139.501 19.7999 138.442 19.7999C136.834 19.7999 135.557 19.3411 134.611 18.4236C133.665 17.5063 133.193 16.3076 133.193 14.8277C133.193 13.3284 133.699 12.1594 134.711 11.3207C135.723 10.4823 137.155 10.0531 139.009 10.0331H143.208V9.73723C143.208 8.889 142.939 8.23289 142.4 7.769C141.861 7.3058 141.071 7.07357 140.031 7.07357C138.612 7.07357 137.099 7.53746 135.491 8.46455L134.129 5.3274C135.34 4.6962 136.474 4.23232 137.534 3.93643C138.593 3.64043 139.756 3.49243 141.024 3.49243C143.067 3.49243 144.65 3.99563 145.776 5.0018C146.901 6.00809 147.474 7.40923 147.493 9.20443L147.521 19.5927H143.237Z" fill="#2998FF"/>
<path fill-rule="evenodd" clip-rule="evenodd" d="M175.51 5.13494C176.503 6.23002 177 7.71494 177 9.58911V19.5927H172.659V10.921C172.659 9.89517 172.394 9.09631 171.864 8.52374C171.335 7.95174 170.616 7.66545 169.708 7.66545C168.668 7.68534 167.845 8.07002 167.24 8.81974C166.634 9.56979 166.332 10.5363 166.332 11.7201V19.5927H161.991V10.921C161.991 9.91471 161.73 9.12077 161.21 8.53848C160.69 7.95677 159.976 7.66545 159.068 7.66545C158.028 7.68534 157.2 8.07002 156.586 8.81974C155.971 9.56979 155.664 10.5363 155.664 11.7201V19.5927H151.294V3.66991H155.664V6.42237C156.723 4.50877 158.444 3.5322 160.827 3.49231C162.114 3.49231 163.201 3.81334 164.09 4.45425C164.979 5.09562 165.613 5.99837 165.991 7.16237C166.483 5.95905 167.197 5.05128 168.133 4.43951C169.07 3.82797 170.19 3.51231 171.495 3.49231C173.179 3.49231 174.517 4.03985 175.51 5.13494Z" fill="#2998FF"/>
</svg>
