<svg xmlns="http://www.w3.org/2000/svg" viewBox="0 0 21.13 20.09">
    <path d="m11 .89 2 6.2a.55.55 0 0 0 .5.3h6.6a.49.49 0 0 1 .3.9l-5.2 4a.37.37 0 0 0-.2.5L17 19a.51.51 0 0 1-.8.5l-5.3-3.9a.64.64 0 0 0-.6 0L5 19.29a.49.49 0 0 1-.8-.5l2-6.2c0-.2 0-.4-.2-.5L.71 8.19a.49.49 0 0 1 .3-.9h6.6a.55.55 0 0 0 .5-.3l2-6.2a.47.47 0 0 1 .89.1Z"
          style="fill:none;stroke:#fec006;stroke-linejoin:round"/>
    <path d="M10.31 15.59a.37.37 0 0 1 .3-.1v-15a.51.51 0 0 0-.5.4l-2 6.2a.55.55 0 0 1-.5.3H1a.49.49 0 0 0-.3.9l5.3 3.9a.37.37 0 0 1 .2.5l-2 6.2a.51.51 0 0 0 .8.5Z"
          style="fill:#fec006"/>
</svg>